<svg xmlns="http://www.w3.org/2000/svg" version="1.1" xmlns:xlink="http://www.w3.org/1999/xlink" xmlns:svgjs="http://svgjs.com/svgjs" width="457" height="457"><svg width="457" height="457" viewBox="0 0 457 457" fill="none" xmlns="http://www.w3.org/2000/svg">
<circle cx="228.5" cy="228.5" r="228.5" fill="#5FCF80"></circle>
<path d="M316.916 304.751C317.598 299.718 313.983 296.103 310.817 292.035C307.628 288.053 305.984 285.122 300.701 284.389C295.466 283.681 291.34 284.78 287.736 287.724C272.409 298.924 255.076 304.519 235.9 304.519C216.362 304.519 198.821 297.043 183.809 282.324C168.713 267.496 161.08 249.723 161.08 229.472C161.08 209.208 168.799 191.351 184.04 176.411C199.281 161.496 216.813 153.935 236.131 153.935C255.086 153.935 272.348 159.505 287.444 170.523C291.729 174.041 292.983 174.493 298.059 173.882C303.16 173.161 306.362 169.741 309.587 165.698C312.704 161.728 315.272 155.816 314.567 150.491C313.836 145.129 311.073 142.05 309.94 141.134C295.807 129.616 279.762 122.971 263.206 119.294V86.7672C263.206 80.1345 257.862 80.0001 251.252 80.0001C244.642 80.0001 239.297 80.1344 239.297 86.7672V116.327C238.957 116.327 238.64 116.241 238.299 116.241C228.901 116.327 219.99 117.768 211.323 119.869V86.7671C211.323 80.1344 205.979 80 199.368 80C192.758 80 187.414 80.1343 187.414 86.7671V128.834C176.835 134.184 166.78 140.841 157.686 149.697C135.043 171.855 124 197.787 124 228.982C124 259.775 135.346 286.55 157.708 308.535C166.789 317.464 176.832 324.122 187.411 329.471V370.16C187.411 376.792 192.755 377 199.365 377C205.976 377 211.32 376.792 211.32 370.16V338.352C219.975 340.392 228.886 341.76 238.296 341.76C238.637 341.76 238.954 341.687 239.295 341.674V370.159C239.295 376.792 244.639 377 251.249 377C257.859 377 263.203 376.792 263.203 370.159V338.73C279.541 335.151 295.294 328.335 310.122 317.696C313.749 314.41 316.16 310.025 316.914 304.748L316.916 304.751Z" fill="white"></path>
</svg><style>@media (prefers-color-scheme: light) { :root { filter: none; } }
</style></svg>